<?xml version="1.0" encoding="utf-8"?>
<!-- Generator: Adobe Illustrator 22.0.0, SVG Export Plug-In . SVG Version: 6.00 Build 0)  -->
<svg version="1.1" xmlns="http://www.w3.org/2000/svg" xmlns:xlink="http://www.w3.org/1999/xlink" x="0px" y="0px"
	 viewBox="0 0 333.7 134.7" style="enable-background:new 0 0 333.7 134.7;" xml:space="preserve">
<style type="text/css">
	.st0{fill:#FFC300;}
	.st1{fill:#3C3C3C;}
	.st2{font-family:'HYYaKuHeiW';}
	.st3{font-size:65.5669px;}
	.st4{fill:#FFFFFF;stroke:#3C3C3C;stroke-width:6;stroke-miterlimit:10;}
	.st5{fill:#FF6C6C;}
</style>
<g id="图层_2">
	<path class="st0" d="M317.6,122.6H13.8c-6.6,0-12-5.4-12-12V24.6c0-6.6,5.4-12,12-12h303.9c6.6,0,12,5.4,12,12v86.1
		C329.6,117.2,324.2,122.6,317.6,122.6z"/>
</g>
<g id="图层_3">
	<text transform="matrix(1 0 0 1 45.7446 91.0978)" class="st1 st2 st3">潘达</text>
</g>
<g id="图层_7">
	<g id="图层_3_1_">
		<path class="st4" d="M276.3,44.1c-1.3,5-13.8,51.6-41.9,60.2c-7.3,2.2-13.9,1.4-14.7,1.3c-13.6-1.8-24.6-12.7-29.3-24.5
			c-3.9-9.9-4.5-23.1,0.9-32.1C201.8,31.5,237.2,26.3,276.3,44.1z"/>
	</g>
</g>
<g id="图层_1">
	<circle class="st5" cx="205.3" cy="75.6" r="5.9"/>
	<circle class="st5" cx="245.6" cy="75.6" r="5.9"/>
</g>
</svg>
